<svg class="ldi-gcix84" width="200px"  height="200px"  xmlns="http://www.w3.org/2000/svg" xmlns:xlink="http://www.w3.org/1999/xlink" viewBox="0 0 100 100" preserveAspectRatio="xMidYMid" style="background: none;"><!--?xml version="1.0" encoding="utf-8"?--><!--Generator: Adobe Illustrator 21.0.0, SVG Export Plug-In . SVG Version: 6.00 Build 0)--><svg version="1.1" id="Layer_1" xmlns="http://www.w3.org/2000/svg" xmlns:xlink="http://www.w3.org/1999/xlink" x="0px" y="0px" viewBox="0 0 100 100" style="transform-origin: 50px 50px 0px;" xml:space="preserve"><g style="transform-origin: 50px 50px 0px;"><g fill="rgb(0, 0, 0)" style="fill: rgb(0, 0, 0); transform-origin: 50px 50px 0px; transform: scale(0.6);"><g style="transform-origin: 50px 50px 0px;"><g fill="rgb(0, 0, 0)" style="fill: rgb(0, 0, 0);"><style type="text/css" class="ld ld-slide-px-btt" style="transform-origin: 50px 50px 0px; animation-duration: 1s; animation-delay: -1s; animation-direction: normal;">.st0{fill:#999998;} .st1{fill:#323232;} .st2{fill:#CCCCCB;} .st3{fill:#ACBD81;} .st4{fill:#849B87;}</style><g class="ld ld-slide-px-btt" style="transform-origin: 50px 50px 0px; animation-duration: 1s; animation-delay: -0.916667s; animation-direction: normal;"><path class="st2" d="M50.91,23.734c-0.245-0.267-0.578-0.4-0.91-0.4s-0.666,0.133-0.91,0.4L23.66,51.469 c-0.726,0.792-0.164,2.07,0.91,2.07h17.682v21.4c0,0.954,0.774,1.728,1.728,1.728H56.02c0.954,0,1.728-0.774,1.728-1.728v-21.4 h17.682c1.075,0,1.636-1.277,0.91-2.07L50.91,23.734z" fill="#f7b733" style="fill: rgb(247, 183, 51);"></path></g><g class="ld ld-slide-px-btt" style="transform-origin: 50px 50px 0px; animation-duration: 1s; animation-delay: -0.833333s; animation-direction: normal;"><path class="st1" d="M50,10c-22.091,0-40,17.909-40,40c0,22.091,17.909,40,40,40s40-17.909,40-40C90,27.909,72.091,10,50,10z M75.429,53.538H57.748v21.4c0,0.954-0.774,1.728-1.728,1.728H43.98c-0.954,0-1.728-0.774-1.728-1.728v-21.4H24.571 c-1.075,0-1.636-1.277-0.91-2.07L49.09,23.734c0.245-0.267,0.578-0.4,0.91-0.4s0.666,0.133,0.91,0.4L76.34,51.469 C77.066,52.261,76.504,53.538,75.429,53.538z" fill="#ff5c39" style="fill: rgb(255, 92, 57);"></path></g><metadata xmlns:d="https://loading.io/stock/" class="ld ld-slide-px-btt" style="transform-origin: 50px 50px 0px; animation-duration: 1s; animation-delay: -0.75s; animation-direction: normal;">
<d:name class="ld ld-slide-px-btt" style="transform-origin: 50px 50px 0px; animation-duration: 1s; animation-delay: -0.666667s; animation-direction: normal;">up</d:name>
<d:tags class="ld ld-slide-px-btt" style="transform-origin: 50px 50px 0px; animation-duration: 1s; animation-delay: -0.583333s; animation-direction: normal;">north,upload,top,direction,way,circle,up,arrow</d:tags>
<d:license class="ld ld-slide-px-btt" style="transform-origin: 50px 50px 0px; animation-duration: 1s; animation-delay: -0.5s; animation-direction: normal;">cc-by</d:license>
<d:slug class="ld ld-slide-px-btt" style="transform-origin: 50px 50px 0px; animation-duration: 1s; animation-delay: -0.416667s; animation-direction: normal;">gcix84</d:slug>
</metadata></g></g></g></g><style type="text/css" class="ld ld-slide-px-btt" style="transform-origin: 50px 50px 0px; animation-duration: 1s; animation-delay: -0.333333s; animation-direction: normal;">path,ellipse,circle,rect,polygon,polyline,line { stroke-width: 0; }@keyframes ld-slide-px-btt {
  0%, 100% {
    animation-timing-function: cubic-bezier(0.5, 0, 1, 0.5);
  }
  50% {
    animation-timing-function: cubic-bezier(0, 0.5, 0.5, 1);
  }
  0% {
    -webkit-transform: translate(0, 0);
    transform: translate(0, 0);
  }
  49.9% {
    -webkit-transform: translate(0, -100px);
    transform: translate(0, -100px);
  }
  50% {
    -webkit-transform: translate(0, 100px);
    transform: translate(0, 100px);
  }
  100% {
    -webkit-transform: translate(0, 0);
    transform: translate(0, 0);
  }
}
@-webkit-keyframes ld-slide-px-btt {
  0%, 100% {
    animation-timing-function: cubic-bezier(0.5, 0, 1, 0.5);
  }
  50% {
    animation-timing-function: cubic-bezier(0, 0.5, 0.5, 1);
  }
  0% {
    -webkit-transform: translate(0, 0);
    transform: translate(0, 0);
  }
  49.9% {
    -webkit-transform: translate(0, -100px);
    transform: translate(0, -100px);
  }
  50% {
    -webkit-transform: translate(0, 100px);
    transform: translate(0, 100px);
  }
  100% {
    -webkit-transform: translate(0, 0);
    transform: translate(0, 0);
  }
}
.ld.ld-slide-px-btt {
  -webkit-animation: ld-slide-px-btt 1s infinite;
  animation: ld-slide-px-btt 1s infinite;
}
</style></svg></svg>